<?xml version="1.0" encoding="UTF-8"?>
<svg width="48px" height="34px" viewBox="0 0 48 34" version="1.1" xmlns="http://www.w3.org/2000/svg" xmlns:xlink="http://www.w3.org/1999/xlink">
    <title>youtube-brands</title>
    <g id="Page-1" stroke="none" stroke-width="1" fill="none" fill-rule="evenodd">
        <g id="home_pc-copy" transform="translate(-1372.000000, -1845.000000)" fill="#FFFFFF" fill-rule="nonzero">
            <g id="youtube-brands" transform="translate(1372.000000, 1845.000000)">
                <path d="M46.9969934,5.31984896 C46.4449531,3.22583854 44.8184511,1.57666146 42.7532877,1.01698958 C39.0100305,0 24,0 24,0 C24,0 8.99005739,0 5.24671235,1.01698958 C3.18154885,1.57675 1.55504693,3.22583854 1.00300659,5.31984896 C0,9.11536458 0,17.0343542 0,17.0343542 C0,17.0343542 0,24.9533438 1.00300659,28.7488594 C1.55504693,30.8428698 3.18154885,32.4233385 5.24671235,32.9830104 C8.99005739,34 24,34 24,34 C24,34 39.0099426,34 42.7532877,32.9830104 C44.8184511,32.4233385 46.4449531,30.8428698 46.9969934,28.7488594 C48,24.9533437 48,17.0343542 48,17.0343542 C48,17.0343542 48,9.11536458 46.9969934,5.31984896 Z M19.0908751,24.2242031 L19.0908751,9.84450521 L31.6362797,17.0345312 L19.0908751,24.2242031 Z" id="Shape"></path>
            </g>
        </g>
    </g>
</svg>